<svg xmlns="http://www.w3.org/2000/svg" xmlns:xlink="http://www.w3.org/1999/xlink" width="940" zoomAndPan="magnify" viewBox="0 0 705 591.000005" height="788" preserveAspectRatio="xMidYMid meet" version="1.0"><defs><clipPath id="9d390ed81a"><path d="M 160.679688 31.933594 L 544.03125 31.933594 L 544.03125 558.292969 L 160.679688 558.292969 Z M 160.679688 31.933594 " clip-rule="nonzero"/></clipPath><clipPath id="dbd7a45136"><path d="M 160.679688 39 L 499 39 L 499 558.292969 L 160.679688 558.292969 Z M 160.679688 39 " clip-rule="nonzero"/></clipPath></defs><g clip-path="url(#9d390ed81a)"><path fill="#e9d1b8" d="M 544.058594 339.105469 C 544.058594 484.445312 458.246094 558.28125 352.382812 558.28125 C 246.523438 558.28125 160.742188 484.460938 160.742188 339.121094 C 160.742188 193.78125 246.558594 31.96875 352.382812 31.96875 C 458.210938 31.96875 544.058594 193.773438 544.058594 339.105469 Z M 544.058594 339.105469 " fill-opacity="1" fill-rule="nonzero"/></g><g clip-path="url(#dbd7a45136)"><path fill="#deba94" d="M 421.65625 505.222656 C 315.792969 505.222656 230.015625 431.402344 230.015625 286.0625 C 230.015625 196.054688 262.9375 99.746094 313.140625 39.453125 C 226.085938 72.851562 160.707031 212.234375 160.707031 339.105469 C 160.707031 484.445312 246.523438 558.265625 352.351562 558.265625 C 411.164062 558.265625 463.769531 535.441406 498.929688 490.257812 C 475.308594 500.191406 449.175781 505.222656 421.65625 505.222656 Z M 421.65625 505.222656 " fill-opacity="1" fill-rule="nonzero"/></g><path fill="#f2e3d4" d="M 404.441406 141.183594 C 394.777344 147.28125 380.945312 143.984375 373.921875 133.800781 C 364.050781 117.625 354.179688 101.441406 344.316406 85.253906 C 338.46875 74.34375 341.863281 60.515625 351.6875 54.707031 C 361.445312 48.894531 381.007812 46.902344 392.199219 54.492188 C 396.273438 57.535156 400.023438 60.933594 403.449219 64.695312 C 406.875 68.457031 409.914062 72.507812 412.5625 76.851562 C 415.214844 81.195312 417.425781 85.75 419.207031 90.519531 C 420.984375 95.289062 422.292969 100.179688 423.132812 105.199219 C 424.777344 118.625 414.066406 135.132812 404.457031 141.183594 Z M 404.441406 141.183594 " fill-opacity="1" fill-rule="nonzero"/></svg>