<svg id="visual" viewBox="0 0 960 540" width="960" height="540" xmlns="http://www.w3.org/2000/svg" xmlns:xlink="http://www.w3.org/1999/xlink" version="1.1"><rect x="0" y="0" width="960" height="540" fill="#ffffff"></rect><g fill="#000000"><circle r="40" cx="139" cy="401"></circle><circle r="8" cx="749" cy="184"></circle><circle r="9" cx="476" cy="98"></circle><circle r="12" cx="368" cy="193"></circle><circle r="38" cx="437" cy="527"></circle><circle r="24" cx="345" cy="539"></circle><circle r="23" cx="292" cy="157"></circle><circle r="38" cx="768" cy="311"></circle><circle r="37" cx="904" cy="52"></circle><circle r="10" cx="141" cy="485"></circle><circle r="14" cx="232" cy="368"></circle><circle r="18" cx="482" cy="293"></circle><circle r="18" cx="50" cy="398"></circle><circle r="19" cx="280" cy="240"></circle><circle r="14" cx="172" cy="171"></circle><circle r="10" cx="760" cy="73"></circle><circle r="12" cx="925" cy="349"></circle><circle r="23" cx="189" cy="23"></circle><circle r="27" cx="4" cy="489"></circle><circle r="34" cx="56" cy="133"></circle><circle r="21" cx="579" cy="63"></circle><circle r="13" cx="352" cy="426"></circle><circle r="29" cx="566" cy="153"></circle><circle r="30" cx="821" cy="378"></circle><circle r="24" cx="612" cy="436"></circle><circle r="8" cx="750" cy="414"></circle><circle r="35" cx="862" cy="192"></circle><circle r="18" cx="627" cy="204"></circle><circle r="15" cx="616" cy="346"></circle><circle r="11" cx="22" cy="61"></circle><circle r="16" cx="268" cy="496"></circle><circle r="33" cx="416" cy="374"></circle><circle r="8" cx="680" cy="527"></circle><circle r="28" cx="539" cy="469"></circle><circle r="7" cx="393" cy="92"></circle><circle r="24" cx="862" cy="279"></circle><circle r="28" cx="460" cy="12"></circle><circle r="24" cx="114" cy="262"></circle><circle r="11" cx="680" cy="287"></circle><circle r="26" cx="853" cy="514"></circle><circle r="8" cx="938" cy="480"></circle><circle r="20" cx="340" cy="13"></circle><circle r="25" cx="229" cy="106"></circle></g></svg>